<svg width="71" height="12" viewBox="0 0 71 12" fill="none" xmlns="http://www.w3.org/2000/svg">
<path fill-rule="evenodd" clip-rule="evenodd" d="M60.6168 0.472271L61.1587 0.490067C61.5295 0.490067 61.8005 0.50359 61.9527 0.525656C62.109 0.548077 62.2232 0.592563 62.2995 0.650573C62.3997 0.717481 62.4657 0.833504 62.4893 0.989385C62.5086 1.14989 62.5227 1.46165 62.5227 1.92965V8.80515L55.2476 0.174034H51.3755V0.472627H52.8537L53.1903 0.681891V10.4722C53.1903 10.4942 53.1858 10.5209 53.1816 10.543C53.1774 10.565 53.1721 10.5832 53.1721 10.5964C53.1342 10.98 53.0529 11.2419 52.9342 11.3854C52.8158 11.5231 52.5019 11.5904 51.9934 11.5772H50.4776L45.7783 0H45.5168L44.9187 1.56415L41.5878 10.2622C41.5309 10.4227 41.4686 10.57 41.4212 10.6903C41.3738 10.8149 41.3218 10.9266 41.2736 11.0156C41.1218 11.2964 40.9415 11.4654 40.7275 11.5188C40.5612 11.559 40.2952 11.5815 39.9248 11.5815V11.5772H38.11V0.472271H39.9252V0.173678H36.2949L32.4794 8.96566L28.4008 0.173678H24.9178V0.472271H26.4908L26.657 0.78866V10.5074C26.657 10.9398 26.5762 11.2338 26.4149 11.3761C26.2532 11.5227 25.9398 11.5904 25.479 11.5768H24.8472V11.8751H28.9428V11.5768L28.4012 11.5943C27.7124 11.5943 27.3033 11.4872 27.1705 11.269C27.0422 11.0547 26.9754 10.7302 26.9754 10.2974V10.1558V10.0173C26.9619 9.9678 26.9556 9.91681 26.9564 9.86571V1.43923L31.6558 11.648L36.2934 1.06946V11.5772H34.4972V11.8754H43.535V11.5772L42.9555 11.5946C42.5043 11.5946 42.1855 11.5544 41.9912 11.4836C41.8007 11.4078 41.7013 11.2694 41.7013 11.0868C41.7013 11.0291 41.7199 10.9352 41.7574 10.8067C41.7961 10.6775 41.8531 10.4988 41.924 10.2803L42.784 8.05243H47.0511L48.4906 11.5772H46.6234V11.8754H55.4324V11.5946C54.4875 11.5946 53.922 11.5188 53.7455 11.3583C53.5751 11.2024 53.4844 10.6547 53.4844 9.71873V0.997924L62.6934 11.9641H62.8024V1.94745C62.8024 1.50187 62.8118 1.21217 62.8217 1.06946C62.8312 0.931374 62.8745 0.815351 62.936 0.735276C62.9454 0.735276 62.9595 0.72638 62.964 0.717483C62.9721 0.704455 62.9818 0.692384 62.9929 0.681535C63.0544 0.601459 63.1591 0.548077 63.3109 0.525656C63.4585 0.50359 63.72 0.481169 64.0949 0.472271H64.6175V0.173678H60.6164V0.472271H60.6168ZM44.9179 7.75349H42.8982L44.861 2.56243L44.9179 2.70052L46.9369 7.75384H44.9179V7.75349ZM71 0.472271V0.173678H65.5025V0.472271H67.3124V11.5772H65.5025V11.8754H71V11.5772H69.1848V0.472271H71ZM23.673 11.6124C23.5922 11.6345 23.5212 11.648 23.459 11.648C23.421 11.6569 23.3831 11.6662 23.3451 11.6662H23.2165C22.8081 11.6662 22.5371 11.4341 22.4184 10.98C22.2996 10.5255 22.2187 9.99917 22.1664 9.40198C22.1569 9.34433 22.1428 9.28596 22.1379 9.2283C22.133 9.17065 22.1284 9.10801 22.1284 9.05036C22.0959 8.64465 22.0372 8.24116 21.9527 7.8421C21.8719 7.45489 21.7296 7.13779 21.5299 6.89329C21.2833 6.5769 20.9501 6.33668 20.5417 6.1719C20.1334 6.00641 19.5391 5.87295 18.7645 5.77045C18.8028 5.77045 18.8359 5.76582 18.8689 5.76155C18.9018 5.75604 18.9352 5.75307 18.9687 5.75265C19.8575 5.63699 20.6651 5.38288 21.4017 4.99959C22.1379 4.61166 22.5037 3.9255 22.5037 2.94537C22.5037 1.95172 22.1379 1.2563 21.4112 0.869091C20.684 0.476897 19.881 0.254109 19.0066 0.209267C18.9283 0.196635 18.8489 0.190678 18.7694 0.191471C18.6932 0.191471 18.6127 0.182575 18.5414 0.173678H12.0883V0.472271H13.9031V11.5772H10.8671L6.17223 0H5.91113L5.31228 1.56415L1.98138 10.2622C1.91952 10.4227 1.8626 10.57 1.81516 10.6903C1.76772 10.8149 1.71535 10.9266 1.66336 11.0156C1.51611 11.2964 1.33547 11.4654 1.12181 11.5188C0.912704 11.5683 0.536996 11.5904 0 11.5772V11.8754H3.92482V11.5772L3.34494 11.5946C2.89826 11.5946 2.57986 11.5544 2.38555 11.4836C2.19049 11.4078 2.09561 11.2694 2.09561 11.0868C2.09561 11.0291 2.11459 10.9352 2.15254 10.8067C2.18556 10.6775 2.24286 10.4988 2.31876 10.2803L3.17871 8.05243H7.44622L8.88605 11.5772H7.01397V11.8754H17.6624V11.5772H15.7334V5.90854L16.4651 5.92669C17.1399 5.92669 17.7053 5.96619 18.1569 6.05125C18.7364 6.1541 19.1357 6.32778 19.3448 6.56836C19.7155 6.99579 19.9721 7.75349 20.1098 8.84074C20.1338 8.97918 20.1573 9.12154 20.1668 9.2639C20.1812 9.40234 20.1998 9.54968 20.2237 9.70058C20.3235 10.5522 20.5516 11.154 20.9079 11.4925C21.2594 11.8263 21.8343 12 22.6184 12C22.818 12 23.0032 11.9918 23.1694 11.9737C23.3356 11.9555 23.5018 11.9203 23.6635 11.8758C23.7398 11.8758 23.8111 11.8626 23.8821 11.8402C23.9551 11.8161 24.0264 11.7878 24.0958 11.7555L23.9819 11.5235C23.8582 11.559 23.7534 11.5904 23.673 11.6124ZM5.31228 7.75349H3.29294L5.25535 2.56243L5.31228 2.70052L7.33161 7.75384H5.31228V7.75349ZM17.2677 5.59677C17.0063 5.61884 16.7402 5.63236 16.4788 5.63699C16.2222 5.64162 15.9706 5.64162 15.733 5.62809V0.472271L16.3888 0.490067C17.1065 0.490067 17.6954 0.512131 18.1565 0.561244C18.4321 0.592563 18.6601 0.628151 18.8408 0.672637C19.3254 0.797556 19.7246 1.05131 20.0336 1.43923C20.1478 1.57732 20.2472 1.74672 20.3281 1.94745C20.4089 2.14354 20.4757 2.34391 20.5231 2.54464C20.5326 2.63361 20.5466 2.73148 20.5611 2.82544C20.5706 2.91441 20.58 3.00338 20.58 3.08844C20.58 4.01946 20.2332 4.66149 19.5394 5.0003C19.102 5.21278 18.6372 5.37152 18.1565 5.47257C17.8666 5.53449 17.5717 5.57435 17.2677 5.59677Z" fill="#3F3F3F"/>
</svg>
