<svg width="77" height="13" viewBox="0 0 77 13" fill="none" xmlns="http://www.w3.org/2000/svg">
<path fill-rule="evenodd" clip-rule="evenodd" d="M11.6566 8.8324C11.6472 8.85065 11.629 8.88714 11.6201 8.91473C10.6337 10.778 8.69703 12.0473 6.4867 12.0473C3.28073 12.0473 0.650391 9.36188 0.650391 6.04638C0.650391 2.74916 3.28073 0.0454102 6.4867 0.0454102C8.70637 0.0454102 10.6519 1.34235 11.629 3.2332C11.6566 3.26969 11.6655 3.28793 11.6931 3.34267C11.7024 3.35201 9.82979 4.70365 9.81155 4.6765C9.80221 4.64 9.7933 4.61242 9.77506 4.59417C9.23585 3.25144 7.95759 2.3563 6.4867 2.38389C4.52289 2.40214 2.90612 4.02781 2.90612 6.04638C2.90612 8.08319 4.52289 9.72759 6.4867 9.72759C7.91175 9.72759 9.15396 8.85065 9.71988 7.60845C9.74747 7.56266 9.75681 7.52617 9.77506 7.48967L11.6566 8.8324Z" fill="#3F3F3F"/>
<path fill-rule="evenodd" clip-rule="evenodd" d="M14.0762 0.155273H16.323V4.34767H22.2238V0.155273H24.4889V11.819H22.2238V6.69501H16.323V11.819H14.0762V0.155273Z" fill="#3F3F3F"/>
<path fill-rule="evenodd" clip-rule="evenodd" d="M56.2031 11.819V0.155273H64.3595V2.51152H58.4774V4.84062H63.912V7.16976H58.4774V9.49885H65.1906V11.819H56.2031Z" fill="#3F3F3F"/>
<path fill-rule="evenodd" clip-rule="evenodd" d="M68.377 11.819V0.155273H70.6603V9.49885H76.9995V11.819H68.377Z" fill="#3F3F3F"/>
<path fill-rule="evenodd" clip-rule="evenodd" d="M43.9455 11.819H43.8725H41.6621V0.155273H41.8263H44.8313L49.8276 7.16976V0.155273H52.0927V11.819H50.2842L43.9455 3.02315V11.819Z" fill="#3F3F3F"/>
<path fill-rule="evenodd" clip-rule="evenodd" d="M33.0657 2.51152L31.0747 7.16976H35.1483L33.0657 2.51152ZM30.0514 9.49885L29.0103 11.819H26.3066L31.4765 0.155273H34.6367L39.843 11.819H37.1393L36.0893 9.49885H30.0514Z" fill="#3F3F3F"/>
</svg>
