<svg width="43" height="18" viewBox="0 0 43 18" fill="none" xmlns="http://www.w3.org/2000/svg">
<path d="M36.1893 11.0098C36.1758 10.929 36.1758 10.8586 36.5786 10.7328C36.9799 10.6085 37.9562 10.2776 38.5492 9.94967C39.1422 9.61875 39.241 9.57233 39.3803 9.66517C39.5195 9.75651 39.4791 9.98111 39.4791 10.1398V11.748C39.6962 11.3917 40.409 10.2057 40.975 9.85683C41.4197 9.58131 41.5769 9.55885 41.8524 9.55286C42.1834 9.54687 42.965 9.75052 42.9994 10.5756C43.0264 11.2209 42.5502 11.48 42.2478 11.4396C42.0052 11.4051 41.8315 11.182 41.6877 10.9574C41.5425 10.7298 41.3119 10.595 41.0813 10.6729C40.8507 10.7523 39.5584 11.5908 39.4851 12.7827C39.4327 13.6602 39.4851 16.3959 39.4851 16.3959C39.4851 16.8107 39.6438 16.9709 39.8295 17.0817C40.0137 17.194 40.692 17.2 40.8821 17.227C41.0753 17.2539 41.0678 17.2988 41.0678 17.3587C41.0678 17.4171 41.0678 17.4456 40.8971 17.4456H36.354C36.2088 17.4456 36.1504 17.4171 36.1504 17.3318C36.1504 17.2135 36.3406 17.2345 36.4858 17.2135C36.6311 17.194 37.3992 17.2569 37.6193 16.8706C37.781 16.6175 37.7616 16.2102 37.7616 16.2102L37.7391 11.4051C37.7391 11.0173 37.6238 10.9604 37.5175 10.899C37.4097 10.8376 37.2315 10.8047 36.8557 10.932C36.5008 11.0487 36.2567 11.1581 36.1893 11.0098Z" fill="#3F3F3F"/>
<path d="M20.301 11.0114C20.2396 10.8931 20.3535 10.8168 20.6904 10.7284C21.0662 10.6281 21.8898 10.378 22.5426 10.0082C23.1955 9.63981 23.3078 9.60088 23.4455 9.6458C23.5848 9.69222 23.5713 9.93629 23.5713 10.1339V16.3511C23.5713 16.7 23.6177 16.8452 23.775 16.9905C23.9337 17.1357 24.329 17.2211 24.8426 17.2211C25.0747 17.2211 25.1466 17.248 25.1466 17.3469C25.1466 17.4457 25.0747 17.4457 24.9819 17.4457H20.4732C20.334 17.4457 20.301 17.3858 20.301 17.3274C20.301 17.254 20.3624 17.2076 20.5721 17.2076C20.7488 17.2076 21.5648 17.269 21.7505 16.8452C21.8224 16.6835 21.8568 16.4574 21.8568 16.2463V11.3139C21.8568 10.9395 21.5663 10.7733 21.2309 10.8542C20.8386 10.944 20.3819 11.1656 20.301 11.0114Z" fill="#3F3F3F"/>
<path d="M22.6007 6.71101C23.2131 6.71101 23.7103 6.21387 23.7103 5.60294C23.7103 4.99051 23.2131 4.49487 22.6007 4.49487C21.9898 4.49487 21.4941 4.99051 21.4941 5.60294C21.4941 6.21387 21.9898 6.71101 22.6007 6.71101Z" fill="#3F3F3F"/>
<path d="M28.0175 13.762C28.2406 15.779 29.4415 17.3483 30.9299 17.0847C32.4213 16.8212 33.1685 15.3972 32.9888 13.1167C32.8046 10.7972 31.6576 9.63972 30.1138 9.77898C28.5176 9.92422 27.7929 11.7435 28.0175 13.762ZM29.4939 9.4241C31.415 9.06472 34.1478 9.48848 34.7692 12.4952C35.3891 15.502 33.3197 17.1027 31.5244 17.4935C29.7694 17.8738 26.7896 17.6028 26.2506 14.3685C25.7654 11.465 27.8722 9.72657 29.4939 9.4241Z" fill="#3F3F3F"/>
<path d="M6.74872 16.9591H7.86277C12.0075 16.9591 13.1201 16.5743 14.5786 14.6367C16.037 12.6991 16.2107 9.91691 16.2107 8.97655C16.2107 8.0362 15.9606 5.67632 14.5022 3.6803C13.0422 1.68429 10.606 1.16619 8.47521 1.16619H6.73974C6.32795 1.16619 6.30699 1.34887 6.30699 1.63637V16.5938C6.30699 16.9202 6.42229 16.9591 6.74872 16.9591ZM0 17.3095C0 17.1583 0.196157 17.1328 0.378839 17.1268C2.48866 17.0669 2.88247 16.9936 3.12355 16.7435C3.25532 16.6057 3.44848 16.4934 3.44848 15.5156V2.06312C3.44848 0.854734 1.98104 1.0464 0.944851 0.940085C0.580986 0.904148 0.551038 0.854734 0.551038 0.74842C0.551038 0.643603 0.619918 0.592692 0.810086 0.585205H9.31075C18.6574 0.585205 19.1351 7.41778 19.1351 9.24009C19.1351 13.1558 16.5461 17.4622 11.1346 17.4622H0.272524C0.139257 17.4622 0 17.4443 0 17.3095Z" fill="#3F3F3F"/>
</svg>
