<svg width="48" height="15" viewBox="0 0 48 15" fill="none" xmlns="http://www.w3.org/2000/svg">
<path d="M0.000888479 0.830109C2.8635 0.830109 5.72549 0.832613 8.5881 0.828857C8.59118 1.61124 8.59425 2.39362 8.58687 3.17663C6.56537 3.17601 4.54325 3.17475 2.52114 3.17726C2.52237 4.15931 2.51991 5.14198 2.52237 6.12402C4.29265 6.12027 6.06292 6.1234 7.83258 6.12277C7.84243 6.90265 7.83073 7.68253 7.83873 8.46241C6.06661 8.46053 4.29511 8.46429 2.5236 8.46054C2.51929 10.3107 2.52114 12.1609 2.52237 14.0111C1.68311 14.0017 0.843846 14.0017 0.00458299 14.0104C-0.00465322 9.61721 0.00335147 5.22335 0.000888479 0.830109Z" fill="#3F3F3F"/>
<path d="M10.2583 14.0105C10.2552 9.61543 10.2546 5.22031 10.2589 0.825195C13.217 0.834584 16.1757 0.829577 19.1343 0.827699C19.1349 1.61071 19.1312 2.39372 19.1362 3.1761C17.0001 3.1761 14.8635 3.17234 12.7275 3.1786C12.7342 4.09743 12.7281 5.01689 12.7305 5.93635C14.6923 5.93134 16.6535 5.93447 18.6152 5.93447C18.6079 6.71372 18.6165 7.4936 18.6097 8.27286C16.6504 8.27473 14.6905 8.27599 12.7312 8.2716C12.7262 9.39949 12.7361 10.5274 12.7262 11.6546C14.9589 11.6621 17.1916 11.6559 19.4249 11.6578C19.4305 12.4401 19.4305 13.2225 19.4249 14.0055C16.3696 14.008 13.3137 13.9974 10.2583 14.0105Z" fill="#3F3F3F"/>
<path d="M21.3196 0.825195C22.2087 0.83208 23.0979 0.833958 23.987 0.825195C25.591 3.88775 27.1944 6.95031 28.8015 10.011C28.8071 6.95094 28.8065 3.89088 28.8015 0.831455C29.5854 0.827073 30.3692 0.832707 31.1531 0.828326C31.1568 5.22156 31.1561 9.6148 31.1537 14.008C30.315 14.0018 29.4764 14.0055 28.6384 14.0055C26.9931 10.8691 25.3441 7.73457 23.6902 4.60254C23.6908 7.73833 23.6914 10.8735 23.6896 14.0093C22.8996 14.0024 22.109 13.9993 21.3184 14.0112C21.3239 9.61605 21.3214 5.22031 21.3196 0.825195Z" fill="#3F3F3F"/>
<path d="M33.561 0.827393C35.3922 0.833026 37.2234 0.827392 39.0546 0.830521C40.0589 0.846795 41.0872 1.13471 41.8612 1.80881C42.6722 2.45475 43.1457 3.42866 43.4418 4.4107C43.6918 5.30512 43.783 6.23772 43.7984 7.16531C43.762 8.59801 43.5631 10.0651 42.9123 11.3545C42.5047 12.2477 41.8255 13.0182 40.9745 13.4932C40.3508 13.8381 39.6384 13.9833 38.934 14.0021C37.1446 14.0108 35.3546 13.9952 33.5653 14.0102C33.553 9.61573 33.5616 5.22125 33.561 0.827393ZM36.0566 3.12447C36.0498 5.98548 36.0529 8.8465 36.0547 11.7075C36.8509 11.7038 37.6464 11.7075 38.4426 11.7056C38.7683 11.6969 39.1008 11.6556 39.4013 11.5216C39.9832 11.2775 40.3964 10.7486 40.6704 10.1897C41.1328 9.17071 41.2338 8.0228 41.2036 6.91433C41.1759 5.85216 41.017 4.71489 40.328 3.87117C39.9136 3.34917 39.2277 3.17579 38.5984 3.13386C37.7511 3.11821 36.9038 3.13699 36.0566 3.12447Z" fill="#3F3F3F"/>
<path d="M45.4812 14.0136C45.4719 9.61719 45.4731 5.22083 45.4805 0.824463C46.3186 0.836981 47.1572 0.827592 47.9952 0.828218C47.9989 5.2202 48.0008 9.61281 47.9946 14.0054C47.1566 14.0092 46.3186 13.9929 45.4812 14.0136Z" fill="#3F3F3F"/>
</svg>
