<svg width="63" height="14" viewBox="0 0 63 14" fill="none" xmlns="http://www.w3.org/2000/svg">
<path d="M56.4265 4.12069L56.3157 4.16064C55.8843 3.14725 55.2679 2.34051 54.4665 1.74039C53.6776 1.14063 52.6855 0.840753 51.4899 0.840753C50.8242 0.840753 50.1894 0.994111 49.5853 1.30083C48.9812 1.59387 48.4511 2.01381 47.9952 2.56064C47.5512 3.0938 47.1937 3.74053 46.9228 4.50084C46.6515 5.26044 46.5159 6.10032 46.5159 7.02047C46.5159 7.94026 46.6515 8.78014 46.9228 9.54009C47.194 10.3 47.5515 10.9534 47.9952 11.5003C48.4511 12.0334 48.981 12.4467 49.5848 12.7401C50.1892 13.0335 50.8242 13.1802 51.4899 13.1802C52.6731 13.1802 53.6345 12.9802 54.3741 12.5803C55.126 12.1666 55.7608 11.5399 56.2787 10.7L56.3896 10.74L56.3526 12.0198C56.069 12.3398 55.7424 12.6265 55.3726 12.88C55.0031 13.1201 54.6026 13.3269 54.1709 13.5004C53.7518 13.6599 53.3143 13.7798 52.8584 13.8601C52.402 13.9533 51.9459 13.9999 51.4899 13.9999C50.5407 13.9999 49.6347 13.8334 48.772 13.5004C47.9089 13.1667 47.1508 12.7 46.4974 12.1002C45.844 11.4868 45.3263 10.7535 44.9442 9.90026C44.5621 9.03374 44.3711 8.07382 44.3711 7.02047C44.3711 5.96712 44.5623 5.01367 44.9447 4.16012C45.3265 3.29361 45.844 2.5538 46.4974 1.94072C47.1508 1.32729 47.9089 0.860559 48.772 0.540523C49.6347 0.207517 50.5405 0.0410156 51.4894 0.0410156C51.9457 0.0410156 52.402 0.0808037 52.8584 0.160375C53.3143 0.240646 53.7518 0.36736 54.1709 0.540523C54.6022 0.700716 55.0028 0.907534 55.3726 1.16097C55.7424 1.40073 56.069 1.68063 56.3526 2.00067L56.4265 4.12069Z" fill="#3F3F3F"/>
<path d="M13.9143 7.94032C13.7758 8.00692 13.6436 8.0935 13.5177 8.20006C13.3918 8.30661 13.3289 8.4533 13.3289 8.64013V11.1002C12.7237 12.02 11.9485 12.7333 11.0034 13.2402C10.0586 13.7467 9.01298 13.9999 7.86647 13.9999C6.89618 13.9999 5.96996 13.8332 5.08779 13.4999C4.20596 13.1666 3.43113 12.6998 2.76329 12.0998C2.09545 11.4863 1.56625 10.7532 1.17569 9.90042C0.785126 9.03359 0.589844 8.07352 0.589844 7.02021C0.589844 5.96725 0.785292 5.014 1.17619 4.16049C1.56642 3.29401 2.09545 2.55406 2.76329 1.94065C3.43113 1.32724 4.20596 0.860707 5.08779 0.541033C5.96996 0.20769 6.89618 0.0410156 7.86647 0.0410156C8.33256 0.0410156 8.79865 0.0809732 9.26475 0.160892C9.73117 0.24081 10.1784 0.367526 10.6064 0.541033C11.0476 0.70087 11.4572 0.907502 11.8352 1.16093C12.2132 1.40103 12.5471 1.68092 12.837 2.0006L12.913 4.12054L12.7992 4.16049C12.3586 3.14749 11.7287 2.34095 10.9095 1.74086C10.1029 1.14077 9.08851 0.840723 7.86647 0.840723C7.18604 0.840723 6.53709 0.994075 5.91961 1.30078C5.30246 1.59416 4.76083 2.01408 4.29474 2.56054C3.8409 3.09403 3.47535 3.74074 3.19808 4.50067C2.92081 5.2606 2.78217 6.10044 2.78217 7.02021C2.78217 7.92665 2.91468 8.75983 3.17969 9.51976C3.45663 10.28 3.82186 10.9334 4.27536 11.4799C4.74179 12.013 5.28357 12.4329 5.90072 12.7396C6.51821 13.033 7.17345 13.1797 7.86647 13.1797C9.17696 13.1797 10.2983 12.9131 11.2305 12.38V8.64013C11.2305 8.45365 11.1613 8.30696 11.0228 8.20006C10.8969 8.0935 10.771 8.00674 10.6451 7.93979L10.662 7.83989C10.725 7.85216 10.8384 7.86548 11.0024 7.87985C11.1664 7.89212 11.3365 7.90544 11.5127 7.91981H13.1381C13.2895 7.90754 13.4344 7.89422 13.5729 7.87985C13.7114 7.86758 13.8183 7.85426 13.8939 7.83989L13.9143 7.94032Z" fill="#3F3F3F"/>
<path d="M27.874 0.77313C27.7511 0.838192 27.6281 0.92294 27.5052 1.02738C27.3819 1.13148 27.3141 1.32683 27.3018 1.61344C27.2905 1.92608 27.2782 2.3233 27.2649 2.8051C27.2649 3.27422 27.2594 3.80841 27.2484 4.40766C27.2484 5.00657 27.2427 5.6577 27.2314 6.36105V8.54916C27.2201 9.39565 27.1215 10.1185 26.9358 10.7178C26.7514 11.317 26.5053 11.8183 26.1975 12.2217C25.9021 12.6258 25.5698 12.9449 25.2006 13.1791C24.8437 13.4137 24.4868 13.5895 24.1298 13.7066C23.7852 13.8368 23.4591 13.915 23.1513 13.9414C22.8436 13.9804 22.6035 13.9999 22.431 13.9999C21.7295 13.9999 21.0526 13.9023 20.4002 13.7072C19.7479 13.5247 19.1756 13.225 18.6834 12.8083C18.1913 12.3912 17.7975 11.8507 17.502 11.1867C17.2066 10.5224 17.0589 9.71479 17.0589 8.76386V6.55623V4.52426C17.0589 3.89933 17.0532 3.33945 17.0419 2.84465C17.0419 2.33648 17.0362 1.92608 17.0249 1.61344C17.0139 1.32683 16.9463 1.13165 16.822 1.02789C16.699 0.92345 16.5761 0.838534 16.4531 0.77313L16.4696 0.675537C16.5311 0.687522 16.6298 0.700529 16.7657 0.714568C16.9133 0.726553 17.0608 0.739568 17.2084 0.753607C17.3685 0.753607 17.5222 0.759601 17.6695 0.771586H18.3344C18.4823 0.759601 18.6362 0.753607 18.796 0.753607C18.9562 0.741622 19.1039 0.728608 19.2392 0.714568C19.3867 0.702583 19.4913 0.689577 19.5527 0.675537L19.5697 0.77313C19.4345 0.838192 19.3052 0.92294 19.1819 1.02738C19.0712 1.13148 19.0098 1.32683 18.9975 1.61344C18.9861 1.92608 18.9738 2.33631 18.9606 2.84414V8.76386C18.9606 10.1836 19.2745 11.2321 19.9022 11.9094C20.53 12.5867 21.4591 12.9254 22.6897 12.9254C23.0466 12.9254 23.4527 12.8797 23.908 12.7883C24.3636 12.6842 24.7883 12.4758 25.1821 12.1631C25.5882 11.8505 25.9267 11.4078 26.1975 10.8349C26.4807 10.2616 26.6223 9.49974 26.6223 8.54916C26.6223 7.52016 26.6166 6.64098 26.6053 5.91161C26.6053 5.16923 26.5996 4.53744 26.5883 4.01627C26.5883 3.48208 26.5826 3.02631 26.5713 2.64895C26.5603 2.27125 26.548 1.92608 26.5344 1.61344C26.5234 1.32683 26.4558 1.13148 26.3315 1.02738C26.2086 0.923283 26.0856 0.838534 25.9626 0.77313L25.9791 0.675537C26.1147 0.701562 26.2686 0.727757 26.4407 0.754124C26.6132 0.765767 26.7734 0.771586 26.9212 0.771586C27.0562 0.771586 27.2099 0.765767 27.3824 0.754124C27.5668 0.7281 27.7268 0.701904 27.8624 0.675537L27.874 0.77313Z" fill="#3F3F3F"/>
<path d="M41.8325 4.12069L41.7158 4.16064C41.2614 3.14725 40.6126 2.34051 39.7694 1.74039C38.9391 1.14063 37.8945 0.840753 36.6358 0.840753C35.9354 0.840753 35.2673 0.994111 34.6315 1.30083C33.9956 1.59387 33.4377 2.01381 32.9577 2.56064C32.4904 3.0938 32.1141 3.74053 31.829 4.50084C31.5434 5.26044 31.4007 6.10032 31.4007 7.02047C31.4007 7.94026 31.5434 8.78014 31.829 9.54009C32.1141 10.3 32.4904 10.9534 32.9577 11.5003C33.4377 12.0334 33.9954 12.4467 34.631 12.7401C35.2672 13.0335 35.9354 13.1802 36.6358 13.1802C37.8816 13.1802 38.8937 12.9802 39.6721 12.5803C40.4635 12.1666 41.1318 11.5399 41.6769 10.7L41.7936 10.74L41.7547 12.0198C41.4562 12.3398 41.1124 12.6265 40.7231 12.88C40.3343 13.1201 39.9126 13.3269 39.4582 13.5004C39.0172 13.6599 38.5567 13.7798 38.0767 13.8601C37.5964 13.9533 37.1162 13.9999 36.6363 13.9999C35.6368 13.9999 34.683 13.8334 33.7749 13.5004C32.8668 13.1667 32.0689 12.7 31.3812 12.1002C30.6935 11.4868 30.1486 10.7535 29.7464 9.90026C29.3438 9.03374 29.1426 8.07382 29.1426 7.02047C29.1426 5.96712 29.3438 5.01367 29.7464 4.16012C30.1489 3.29361 30.6939 2.5538 31.3812 1.94072C32.0689 1.32729 32.8668 0.860559 33.7749 0.540523C34.6833 0.207517 35.6371 0.0410156 36.6363 0.0410156C37.1162 0.0410156 37.5962 0.0808037 38.0762 0.160375C38.5565 0.240646 39.017 0.36736 39.4577 0.540523C39.9121 0.700716 40.3339 0.907534 40.7231 1.16097C41.1124 1.40073 41.4562 1.68063 41.7547 2.00067L41.8325 4.12069Z" fill="#3F3F3F"/>
<path d="M62.1181 12.7276C62.0555 12.7168 61.9491 12.7049 61.7989 12.6919C61.6612 12.6919 61.5109 12.6863 61.3478 12.6752C61.1848 12.6752 61.0281 12.6698 60.8779 12.659H59.7509C59.6004 12.6698 59.4499 12.6817 59.2994 12.6947C59.1617 12.7058 59.0553 12.7179 58.9802 12.7309L58.9629 12.6585C59.0881 12.5981 59.2132 12.5195 59.3384 12.4226C59.4639 12.326 59.5329 12.1448 59.5454 11.8789C59.5569 11.5888 59.5627 11.2867 59.5627 10.9725C59.5742 10.6583 59.58 10.3018 59.58 9.90307V8.54346V6.71301V4.88209V3.50485C59.58 3.10581 59.5742 2.75523 59.5627 2.45309C59.5627 2.13888 59.5569 1.83691 59.5454 1.54716C59.5339 1.28124 59.465 1.09999 59.3389 1.00341C59.2137 0.894436 59.0886 0.809766 58.9634 0.749403L58.9802 0.67697C59.0553 0.701115 59.1617 0.719223 59.2994 0.731296C59.4499 0.731296 59.6002 0.736858 59.7504 0.747977C59.9135 0.759097 60.0701 0.764658 60.2203 0.764658H60.8779C61.0281 0.753539 61.1846 0.747977 61.3473 0.747977C61.5107 0.736858 61.6612 0.724783 61.7989 0.711757C61.9491 0.700638 62.0555 0.688563 62.1181 0.675537L62.1354 0.74845C61.9977 0.808814 61.8661 0.893329 61.7406 1.00198C61.6279 1.09856 61.5654 1.27966 61.5528 1.54526C61.5413 1.83564 61.5288 2.13793 61.5153 2.45214V10.9715C61.5268 11.2854 61.5393 11.5874 61.5528 11.8774C61.564 12.1434 61.6266 12.3246 61.7406 12.4212C61.8658 12.5178 61.9974 12.5964 62.1354 12.6571L62.1181 12.7276Z" fill="#3F3F3F"/>
</svg>
