<svg width="65" height="13" viewBox="0 0 65 13" fill="none" xmlns="http://www.w3.org/2000/svg">
<path fill-rule="evenodd" clip-rule="evenodd" d="M58.6351 0.25708H65V1.27528C64.8152 1.21311 64.6217 1.18108 64.4267 1.1804H60.7676V5.93865H64.3267C64.5824 5.93865 64.81 5.91005 65 5.86261V6.87593C64.8384 6.83861 64.6161 6.81942 64.3413 6.81942H60.7676V11.7392H64.3173C64.5115 11.7392 64.7443 11.7106 65 11.6492V12.7434H58.6445C58.6921 12.562 58.7206 12.3674 58.7206 12.1536V0.861234C58.7206 0.613921 58.6921 0.409165 58.6351 0.25708ZM57.1609 3.49762L55.322 3.48331C55.2317 2.44627 54.6393 1.44202 53.3364 1.25645C50.5448 1.00425 49.7575 4.08293 49.8288 6.33352C49.9 8.50318 50.246 11.8389 53.1273 11.8389C54.336 11.8389 55.4967 10.5923 55.4596 9.54022L57.1606 9.52662C57.0373 11.6959 54.5583 12.952 53.3781 12.9949C49.3455 13.1331 47.6577 10.4346 47.5729 6.58537C47.4968 3.09752 48.9185 0 52.9046 0C56.3177 0.0477883 56.9757 2.07478 57.1609 3.49762ZM28.4788 11.3244L29.6969 10.3017C30.332 11.3537 30.8535 11.8341 32.114 11.8341C33.3936 11.8341 34.4699 11.0534 34.4699 9.67382C34.4699 8.99327 34.1944 8.43655 33.6496 8.01832C33.4033 7.82263 32.7776 7.48497 31.7919 7.01407C30.3178 6.30491 28.8819 5.38194 28.8819 3.52622C28.8819 1.18529 30.8629 0.152781 32.9527 0.0763895C34.1899 0.02895 35.7252 0.714382 36.3464 1.48492L35.1092 2.44139C34.8886 2.02808 34.5607 1.68247 34.1602 1.44123C33.7597 1.19999 33.3016 1.07213 32.8346 1.07123C31.2562 1.07123 30.0051 2.90776 31.3132 4.17363C31.645 4.49733 32.3228 4.89673 33.3557 5.37287C35.0053 6.14865 36.4128 7.07651 36.4128 9.12722C36.4128 9.83567 36.2283 10.4974 35.8631 11.1015C35.1283 12.3196 33.9008 12.9287 32.1856 12.9287C30.2132 12.9283 29.8248 12.4766 28.4788 11.3244ZM11.1233 0.25708H17.4837V1.27528C17.2988 1.21303 17.1051 1.18099 16.9101 1.1804H13.2513V5.93865H16.8104C17.0665 5.93865 17.294 5.91005 17.4837 5.86261V6.87593C17.3225 6.83861 17.0998 6.81942 16.8295 6.81942H13.2513V11.7392H16.801C16.9952 11.7392 17.2277 11.7106 17.4834 11.6492V12.7434H11.1327C11.1754 12.562 11.2039 12.3674 11.2039 12.1536V0.861234C11.2039 0.613921 11.1754 0.409165 11.1233 0.25708ZM0 0.25708H2.31284V0.371143C2.31284 0.476137 2.3462 0.613923 2.40283 0.790077L5.66346 10.6446L9.00921 0.747171C9.06132 0.580436 9.08981 0.418932 9.08981 0.25708H10.2127C10.0991 0.456954 10.0136 0.633108 9.96152 0.790077L6.14152 12.2342C6.10365 12.343 6.0703 12.515 6.04181 12.7431H4.14588C4.11736 12.5702 4.07459 12.4 4.01803 12.2342L0.275165 0.880419C0.232431 0.775773 0.142446 0.5616 0.004864 0.25708H0ZM24.564 6.76675C26.0805 6.46712 27.2416 5.30101 27.2416 3.63575C27.2416 1.45144 25.4222 0.25708 23.3838 0.25708H19.6586C19.7108 0.447536 19.7392 0.647407 19.7392 0.856699V12.1435C19.7392 12.3859 19.7108 12.5903 19.6586 12.7431H21.8766C21.8227 12.5478 21.7957 12.3461 21.7964 12.1435V6.95686L22.5072 7.03325L26.223 12.7431H28.4552L24.564 6.76675ZM24.1801 5.81482C23.7774 6.10051 23.2938 6.24317 22.7396 6.24317H21.7915V1.16575H22.6396C23.365 1.16575 23.9286 1.34679 24.3316 1.70817C24.8816 2.20803 25.1612 2.88369 25.1612 3.73063C25.1612 4.64419 24.834 5.33903 24.1801 5.81482ZM47.2036 12.2244L43.0615 0.671128C43.0154 0.537607 42.9883 0.398217 42.9809 0.25708H41.1896C41.1896 0.404631 41.1659 0.561599 41.109 0.718568L37.0951 12.2244C37.043 12.3908 36.9575 12.5617 36.8439 12.7427H38.0002C37.9931 12.5671 38.0172 12.3916 38.0714 12.2244L39.2603 8.83142H43.8339L45.0092 12.2244C45.0711 12.4096 45.0996 12.5805 45.0996 12.7427H47.4975C47.3603 12.5481 47.2606 12.3716 47.2036 12.2244ZM39.573 7.91332L41.5068 2.27465L43.4923 7.91332H39.573Z" fill="#3F3F3F"/>
</svg>
