<svg width="16" height="14" viewBox="0 0 16 14" fill="none" xmlns="http://www.w3.org/2000/svg">
<path d="M7.84892 13.4324L7.78337 13.3755L6.73951 12.4692L7.84892 13.4324ZM7.84892 13.4324L7.91448 13.3755M7.84892 13.4324L7.91448 13.3755M7.91448 13.3755L8.95834 12.4692L7.91448 13.3755ZM7.84892 1.98089C8.65291 1.13432 9.8465 0.599951 11.0889 0.599951C13.3571 0.599951 15.1489 2.29501 15.1489 4.47652C15.1489 5.80531 14.5197 7.00551 13.4374 8.26838C12.3559 9.53014 10.8104 10.8676 8.95848 12.4691L7.84892 1.98089ZM7.84892 1.98089C7.04494 1.13432 5.85135 0.599951 4.60893 0.599951C2.34074 0.599951 0.548926 2.29501 0.548926 4.47652C0.548926 5.80531 1.17812 7.00551 2.2605 8.26838C3.34192 9.53014 4.88747 10.8676 6.73937 12.4691L7.84892 1.98089ZM7.85557 11.3016L7.85549 11.3016L7.85191 11.305L7.84572 11.3109L7.83523 11.3018L7.83516 11.3017C6.12333 9.8204 4.70879 8.59596 3.72128 7.49453C2.73241 6.39158 2.18893 5.43014 2.18893 4.47652C2.18893 3.16287 3.21963 2.17325 4.60893 2.17325C5.68166 2.17325 6.72217 2.83937 7.08676 3.73157L7.11216 3.79374H7.17932H8.51853H8.58569L8.61109 3.73157C8.97568 2.83937 10.0162 2.17325 11.0889 2.17325C12.4782 2.17325 13.5089 3.16287 13.5089 4.47652C13.5089 5.43012 12.9655 6.39156 11.9757 7.4945C10.9873 8.59591 9.57098 9.82036 7.85557 11.3016Z" fill="#3F3F3F" stroke="#3F3F3F" stroke-width="0.2"/>
</svg>
