<svg xmlns="http://www.w3.org/2000/svg" width="21" height="21" fill="none"><g clip-path="url(#a)"><path d="M3.83 21H21V0H0v21H3.829ZM14.355 3.281c0-.255.091-.476.274-.663a.9.9 0 0 1 .67-.28h2.379c.264 0 .487.093.67.28a.92.92 0 0 1 .273.663v2.256a.91.91 0 0 1-.273.67.91.91 0 0 1-.67.273h-2.38a.91.91 0 0 1-.67-.273.909.909 0 0 1-.273-.67V3.28Zm-.854 5.091c.824.798 1.237 1.762 1.237 2.892s-.413 2.094-1.237 2.891c-.825.798-1.821 1.196-2.988 1.196-1.157 0-2.148-.398-2.973-1.196-.825-.797-1.237-1.76-1.237-2.891 0-1.13.412-2.094 1.237-2.892.825-.797 1.816-1.196 2.973-1.196 1.167 0 2.163.4 2.988 1.196Zm-7.856-5.09c0-.256.091-.477.274-.664a.9.9 0 0 1 .67-.28h.5c.265 0 .488.093.67.28a.919.919 0 0 1 .274.663v2.256a.91.91 0 0 1-.273.67.91.91 0 0 1-.67.273H6.59a.91.91 0 0 1-.67-.273.91.91 0 0 1-.274-.67V3.28Zm-3.307 0c0-.256.09-.477.273-.664a.9.9 0 0 1 .67-.28h.501c.264 0 .488.093.67.28a.919.919 0 0 1 .273.663v2.256a.91.91 0 0 1-.273.67.91.91 0 0 1-.67.273h-.5a.91.91 0 0 1-.67-.273.91.91 0 0 1-.274-.67V3.28Zm0 15V9.424h1.927a5.882 5.882 0 0 0-.273 1.791c0 1.75.638 3.243 1.914 4.478 1.276 1.235 2.812 1.852 4.607 1.852a6.564 6.564 0 0 0 3.282-.848 6.375 6.375 0 0 0 2.378-2.303 6.06 6.06 0 0 0 .875-3.179c0-.62-.09-1.217-.273-1.791h1.846v8.86a.795.795 0 0 1-.247.594.81.81 0 0 1-.587.24H3.173a.804.804 0 0 1-.595-.24.806.806 0 0 1-.24-.594Z" fill="#fff"/></g><defs><clipPath id="a"><path fill="#fff" d="M0 0h21v21H0z"/></clipPath></defs></svg>