<svg xmlns="http://www.w3.org/2000/svg" width="82" height="39" fill="none" viewBox="0 0 82 39"><path stroke="#fff" stroke-width="3" d="M1.76 10.27h70.41V37.5H1.76z"/><path fill="#fff" d="M17.62 31.42c-1.45 0-2.48-.4-3.09-1.21-.6-.82-.9-1.97-.9-3.46v-4.99c0-1.53.3-2.7.9-3.49.6-.8 1.63-1.19 3.1-1.19 1.36 0 2.34.35 2.91 1.04.58.69.86 1.68.86 2.99v1.17h-2.45v-1.2c0-.5-.02-.89-.07-1.17a1.13 1.13 0 0 0-.36-.69c-.18-.18-.48-.27-.88-.27-.42 0-.73.1-.93.29-.21.18-.35.44-.42.76a7 7 0 0 0-.08 1.23v6.06c0 .8.1 1.37.3 1.73.21.34.59.51 1.13.51.4 0 .68-.09.86-.27.2-.19.32-.43.37-.73a7 7 0 0 0 .08-1.22v-1.26h2.45v1.12c0 1.35-.28 2.4-.84 3.14-.57.74-1.54 1.1-2.94 1.1ZM24.91 17.24h3.37c1.47 0 2.57.28 3.3.84.72.56 1.09 1.51 1.09 2.87 0 .89-.14 1.61-.4 2.18-.25.55-.7.95-1.33 1.2l1.95 6.9h-2.55l-1.68-6.41h-1.2v6.4H24.9V17.25Zm3.35 5.99c.73 0 1.24-.17 1.54-.5.31-.33.47-.88.47-1.64 0-.74-.14-1.27-.42-1.6-.26-.34-.75-.5-1.45-.5h-.95v4.24h.81ZM36.39 17.24h2.52v13.99H36.4v-14ZM46.33 31.42c-1.27 0-2.22-.36-2.85-1.07-.62-.72-.96-1.78-1.02-3.2l2.2-.43c.03.89.17 1.57.4 2.04.26.46.65.69 1.18.69.4 0 .68-.12.87-.35.2-.24.29-.56.29-.96 0-.56-.13-1.02-.38-1.4a5.9 5.9 0 0 0-1.16-1.28l-1.76-1.54a5.02 5.02 0 0 1-1.23-1.48 4.2 4.2 0 0 1-.4-1.9c0-1.1.32-1.94.96-2.54a3.71 3.71 0 0 1 2.66-.92c1.2 0 2.07.35 2.59 1.04.53.68.83 1.6.91 2.76l-2.19.38a4.56 4.56 0 0 0-.33-1.7c-.17-.4-.52-.6-1.03-.6-.37 0-.66.13-.87.38-.2.25-.3.56-.3.94 0 .45.08.83.25 1.14.18.3.48.62.88.96l1.75 1.54a6.97 6.97 0 0 1 1.53 1.81c.37.65.56 1.4.56 2.25a3.5 3.5 0 0 1-.45 1.78c-.3.52-.7.93-1.23 1.23-.53.28-1.14.43-1.83.43ZM53.07 17.24h4.1c2.4 0 3.58 1.32 3.58 3.97 0 2.53-1.25 3.8-3.74 3.8h-1.4v6.22h-2.54v-14Zm3.52 5.97c.7 0 1.16-.14 1.4-.43.24-.3.36-.83.36-1.59 0-.55-.04-.97-.12-1.26-.08-.3-.25-.52-.5-.67a2.23 2.23 0 0 0-1.14-.23h-.98v4.18h.98Z"/><path stroke="#fff" stroke-width="3" d="M77.55 33.82v-3.89h2.6V2.3H9.32v2.59H5.87"/></svg>