<svg xmlns="http://www.w3.org/2000/svg" width="21" height="21" fill="none"><g clip-path="url(#a)"><path fill-rule="evenodd" clip-rule="evenodd" d="M0 0v21h21V0H0Zm16.28 7.535c.006.128.01.257.01.386 0 3.942-3 8.486-8.487 8.486a8.44 8.44 0 0 1-4.572-1.34 5.984 5.984 0 0 0 4.416-1.235 2.986 2.986 0 0 1-2.787-2.071 2.976 2.976 0 0 0 1.347-.051 2.985 2.985 0 0 1-2.392-2.962 2.97 2.97 0 0 0 1.35.373 2.981 2.981 0 0 1-.922-3.983 8.468 8.468 0 0 0 6.148 3.117 2.983 2.983 0 0 1 5.083-2.72 5.971 5.971 0 0 0 1.893-.724 2.991 2.991 0 0 1-1.311 1.65 5.964 5.964 0 0 0 1.713-.47 6.055 6.055 0 0 1-1.488 1.544Z" fill="#fff"/></g><defs><clipPath id="a"><path fill="#fff" d="M0 0h21v21H0z"/></clipPath></defs></svg>